<svg width="1997" height="1997" viewBox="0 0 1997 1997" fill="none" xmlns="http://www.w3.org/2000/svg">
<g clip-path="url(#clip0_2_88)">
<rect width="1997" height="1997" fill="url(#paint0_linear_2_88)" fill-opacity="0.8"/>
<path d="M53 1577L136.138 1721H-30.1384L53 1577Z" fill="#D9D9D9"/>
<path d="M53 1885L136.138 1744H-30.1384L53 1885Z" fill="#D9D9D9"/>
<path d="M149 1769L232.138 1913H65.8616L149 1769Z" fill="#D9D9D9"/>
<path d="M149 2077L232.138 1936H65.8616L149 2077Z" fill="#D9D9D9"/>
<path d="M1374.77 1783.3L1397.66 1948L1243.59 1885.47L1374.77 1783.3Z" fill="#D9D9D9"/>
<path d="M1258.95 2068.7L1389.01 1969.31L1234.94 1906.78L1258.95 2068.7Z" fill="#D9D9D9"/>
<path d="M1775.64 1735.3L1798.52 1900L1644.45 1837.47L1775.64 1735.3Z" fill="#D9D9D9"/>
<path d="M1659.82 2020.7L1789.88 1921.31L1635.8 1858.78L1659.82 2020.7Z" fill="#D9D9D9"/>
<path d="M1551.64 1675.1L1574.52 1839.79L1420.45 1777.27L1551.64 1675.1Z" fill="#D9D9D9"/>
<path d="M1435.82 1960.49L1565.88 1861.11L1411.8 1798.58L1435.82 1960.49Z" fill="#D9D9D9"/>
<path d="M1952.5 1627.1L1975.39 1791.79L1821.32 1729.27L1952.5 1627.1Z" fill="#D9D9D9"/>
<path d="M1836.68 1912.49L1966.74 1813.11L1812.67 1750.58L1836.68 1912.49Z" fill="#D9D9D9"/>
<path d="M1601.05 1873.44L1625.41 2042.72L1465.61 1977.87L1601.05 1873.44Z" fill="#D9D9D9"/>
<path d="M2008.99 1825.44L2033.35 1994.72L1873.55 1929.87L2008.99 1825.44Z" fill="#D9D9D9"/>
<path d="M1890.2 2118.15L2024.48 2016.58L1864.68 1951.73L1890.2 2118.15Z" fill="#D9D9D9"/>
<path d="M1885 54L1968.14 198H1801.86L1885 54Z" fill="#D9D9D9"/>
<path d="M1885 362L1968.14 221H1801.86L1885 362Z" fill="#D9D9D9"/>
<path d="M1789 -138L1872.14 6H1705.86L1789 -138Z" fill="#D9D9D9"/>
<path d="M1789 170L1872.14 29H1705.86L1789 170Z" fill="#D9D9D9"/>
</g>
<defs>
<linearGradient id="paint0_linear_2_88" x1="1997" y1="1997" x2="-337.954" y2="998.5" gradientUnits="userSpaceOnUse">
<stop stop-color="#00C2FF"/>
<stop offset="1" stop-color="#87EEE8"/>
</linearGradient>
<clipPath id="clip0_2_88">
<rect width="1997" height="1997" fill="white"/>
</clipPath>
</defs>
</svg>
